<?xml version="1.0" encoding="utf-8"?>
<!-- Generator: Adobe Illustrator 16.0.0, SVG Export Plug-In . SVG Version: 6.00 Build 0)  -->
<!DOCTYPE svg PUBLIC "-//W3C//DTD SVG 1.1//EN" "http://www.w3.org/Graphics/SVG/1.1/DTD/svg11.dtd">
<svg version="1.1" id="Layer_1" xmlns="http://www.w3.org/2000/svg" xmlns:xlink="http://www.w3.org/1999/xlink" x="0px" y="0px"
	 width="280px" height="253.823px" viewBox="12.577 3.112 280 253.823" enable-background="new 12.577 3.112 280 253.823"
	 xml:space="preserve">
<g>
	<polygon fill="#BE1E2D" points="18.264,43.134 152.576,11.633 286.889,43.134 286.889,223.986 152.576,255.488 18.264,223.986 	"/>
	<g>
		<polygon fill="#F05564" points="152.576,210.724 152.576,256.368 287.86,224.64 226.301,194.044 		"/>
		<polygon fill="#CB2027" points="78.852,194.029 17.295,224.64 152.576,256.368 152.576,210.724 		"/>
		<polygon fill="#91191C" points="78.852,194.027 78.852,148.794 78.852,118.323 78.852,73.117 78.816,73.098 17.295,42.48 
			17.295,87.033 17.295,180.085 17.295,224.64 78.852,194.029 		"/>
		<polygon fill="#F05564" points="78.852,73.117 152.576,56.393 152.576,10.752 17.295,42.48 78.816,73.098 		"/>
		<polygon fill="#CB2027" points="226.301,73.081 287.86,42.48 152.576,10.752 152.576,56.393 		"/>
		<polygon fill="#91191C" points="226.301,73.081 226.301,73.091 226.301,118.323 226.301,148.794 226.301,194.027 226.301,194.044 
			287.86,224.64 287.86,180.085 287.86,87.033 287.86,42.48 		"/>
		<polygon fill="#BE1E2D" points="78.852,73.117 78.852,118.323 78.852,148.794 78.852,194.027 78.852,194.029 152.576,210.724 
			226.301,194.044 226.301,194.027 226.301,148.794 226.301,118.323 226.301,73.091 226.301,73.081 152.576,56.393 		"/>
	</g>
	<g>
		<g>
			<path fill="#FFFFFF" d="M58.709,129.477c-1.148,0-2.082-0.933-2.082-2.011V80.588c0-1.077,0.934-2.009,2.082-2.009h16.87
				c5.386,0,9.117,4.664,9.117,9.332v6.678c0,3.661-1.579,6.677-5.238,7.968c5.238,0.931,6.819,5.312,6.819,9.19v8.327
				c0,4.667-3.592,9.402-9.261,9.402L58.709,129.477L58.709,129.477z M76.657,90.566c0-2.799-1.866-4.667-4.737-4.667h-6.679v13.643
				h6.679c2.871,0,4.737-1.868,4.737-4.737V90.566z M65.24,122.227h7.108c2.872,0,4.74-1.867,4.74-4.738v-6.245
				c0-2.871-1.868-4.738-4.74-4.738H65.24V122.227z"/>
			<path fill="#FFFFFF" d="M113.913,129.477c-1.147,0-1.868-0.933-2.084-2.011l-8.758-38.479v38.479
				c0,1.078-0.931,2.011-2.082,2.011h-3.876c-1.147,0-2.082-0.933-2.082-2.011V80.588c0-1.077,0.935-2.009,2.082-2.009h9.19
				c1.147,0,1.867,0.932,2.08,2.009l6.819,31.015l6.82-31.015c0.217-1.077,0.937-2.009,2.082-2.009h9.188
				c1.149,0,2.084,0.932,2.084,2.009v46.879c0,1.078-0.935,2.011-2.084,2.011h-3.874c-1.151,0-2.083-0.933-2.083-2.011V88.988
				l-8.76,38.479c-0.216,1.078-0.932,2.011-2.083,2.011H113.913z"/>
			<path fill="#FFFFFF" d="M174.428,116.915c0,8.975-6.531,13.997-14.789,13.997c-8.256,0-14.789-5.022-14.789-13.997V90.998
				c0-8.976,6.533-14.002,14.789-14.002c8.258,0,14.789,5.026,14.789,14.002V116.915z M165.672,90.998
				c0-3.732-2.371-6.389-6.033-6.389c-3.658,0-6.029,2.655-6.029,6.389v25.917c0,3.732,2.371,6.39,6.029,6.39
				c3.662,0,6.033-2.656,6.033-6.39V90.998z"/>
			<path fill="#FFFFFF" d="M192.371,107.652v19.813c0,1.078-0.934,2.011-2.08,2.011h-4.666c-1.148,0-2.082-0.933-2.082-2.011V80.588
				c0-1.077,0.934-2.009,2.082-2.009h17.516c5.527,0,9.115,4.377,9.115,9.332v7.18c0,4.593-1.506,8.255-6.17,8.758
				c5.74,0.574,7.107,5.168,7.107,9.979v13.64c0,1.078-0.938,2.011-2.082,2.011h-4.668c-1.148,0-2.082-0.933-2.082-2.011v-15.074
				c0-2.872-2.084-4.739-4.955-4.739h-7.035V107.652z M204.147,90.566c0-2.799-1.869-4.667-4.74-4.667h-7.035v14.432h7.035
				c2.871,0,4.74-1.867,4.74-4.739V90.566z"/>
			<path fill="#FFFFFF" d="M224.03,129.477c-1.148,0-2.082-0.933-2.082-2.011V80.588c0-1.077,0.934-2.009,2.082-2.009h22.109
				c1.08,0,2.012,0.932,2.012,2.08v3.446c0,1.148-0.932,2.081-2.012,2.081h-15.363v12.706h13.211c1.08,0,2.012,0.935,2.012,2.084
				v3.373c0,1.149-0.932,2.083-2.012,2.083h-13.211v15.434h15.721c1.08,0,2.016,0.936,2.016,2.085v3.444
				c0,1.148-0.936,2.081-2.016,2.081L224.03,129.477L224.03,129.477z"/>
		</g>
		<g>
			<path fill="#FFFFFF" d="M78.739,179.423c0,6.859-4.995,10.701-11.302,10.701c-6.311,0-11.304-3.842-11.304-10.701v-19.807
				c0-6.855,4.993-10.699,11.304-10.699c6.307,0,11.302,3.844,11.302,10.699V179.423z M72.046,159.616
				c0-2.852-1.812-4.883-4.608-4.883c-2.798,0-4.61,2.031-4.61,4.883v19.807c0,2.855,1.812,4.887,4.61,4.887
				c2.797,0,4.608-2.029,4.608-4.887V159.616z"/>
			<path fill="#FFFFFF" d="M103.975,151.716c0-0.818,0.712-1.535,1.591-1.535h3.565c0.878,0,1.593,0.717,1.593,1.535v35.773
				c0,0.82-0.714,1.537-1.593,1.537h-4.499c-1.099,0-1.428-0.77-1.757-1.537l-10.698-24.307v24.307c0,0.82-0.714,1.537-1.59,1.537
				h-3.568c-0.878,0-1.59-0.717-1.59-1.537v-35.826c0-0.824,0.712-1.537,1.59-1.537h4.501c1.096,0,1.427,0.77,1.755,1.537
				l10.7,24.305V151.716L103.975,151.716z"/>
			<path fill="#FFFFFF" d="M135.737,172.347v15.143c0,0.822-0.712,1.537-1.59,1.537h-3.568c-0.876,0-1.59-0.715-1.59-1.537v-35.826
				c0-0.822,0.714-1.537,1.59-1.537h13.39c4.223,0,6.969,3.35,6.969,7.135v5.484c0,3.516-1.156,6.311-4.721,6.695
				c4.391,0.438,5.434,3.949,5.434,7.625v10.424c0,0.822-0.713,1.537-1.592,1.537h-3.564c-0.881,0-1.594-0.715-1.594-1.537v-11.521
				c0-2.191-1.589-3.621-3.785-3.621H135.737L135.737,172.347z M144.737,159.29c0-2.143-1.426-3.568-3.621-3.568h-5.378v11.027
				h5.378c2.194,0,3.621-1.426,3.621-3.623V159.29z"/>
			<path fill="#FFFFFF" d="M173.641,150.126c0.656,0,1.152,0.438,1.264,0.984l8.281,35.83c0.111,0.439,0.166,0.879,0.166,0.932
				c0,0.605-0.494,1.154-1.205,1.154h-4.061c-0.658,0-1.039-0.549-1.207-1.207l-1.646-6.916h-10.535l-1.645,6.916
				c-0.164,0.658-0.551,1.207-1.209,1.207h-4.059c-0.713,0-1.209-0.549-1.209-1.154c0-0.053,0.057-0.49,0.166-0.932l8.285-35.83
				c0.111-0.547,0.604-0.984,1.264-0.984H173.641z M169.965,156.984l-4.002,18.219h8.01L169.965,156.984z"/>
			<path fill="#FFFFFF" d="M188.781,151.663c0-0.824,0.713-1.537,1.594-1.537h3.562c0.879,0,1.594,0.713,1.594,1.537v35.826
				c0,0.82-0.715,1.537-1.594,1.537h-3.562c-0.881,0-1.594-0.717-1.594-1.537V151.663z"/>
			<path fill="#FFFFFF" d="M221.317,187.49c0,0.82-0.713,1.537-1.592,1.537h-15.363c-0.877,0-1.59-0.717-1.59-1.537v-35.826
				c0-0.824,0.713-1.537,1.59-1.537h3.568c0.875,0,1.59,0.713,1.59,1.537v31.549h10.205c0.879,0,1.592,0.713,1.592,1.533V187.49z"/>
			<path fill="#FFFFFF" d="M233,160.165c0,2.195,1.152,2.961,3.895,4.719l7.135,4.613c4.168,2.684,4.881,4.824,4.881,9.926
				c0,6.914-4.66,10.701-11.412,10.701c-6.475,0-11.305-3.676-11.305-10.701v-2.248c0-0.82,0.717-1.537,1.592-1.537h3.516
				c0.875,0,1.59,0.717,1.59,1.537v2.248c0,2.801,1.865,4.887,4.605,4.887c3.021,0,4.611-1.867,4.611-4.887v-0.818
				c0-2.25-1.209-3.02-3.127-4.281l-8.668-5.648c-3.35-2.199-4.119-5.602-4.119-8.729c0-6.914,4.5-11.029,11.416-11.029
				c6.529,0,11.301,3.625,11.301,10.701v1.209c0,0.82-0.713,1.533-1.59,1.533h-3.512c-0.881,0-1.592-0.713-1.592-1.533v-1.209
				c0-2.799-1.592-4.885-4.607-4.885c-3.018,0-4.609,1.867-4.609,4.885V160.165z"/>
		</g>
		<g>
			<path fill="#FFFFFF" d="M248.307,139.191c0-1.1-0.9-2-2-2H58.771c-1.1,0-2,0.9-2,2v0.029c0,1.1,0.9,2,2,2h187.536
				c1.1,0,2-0.9,2-2V139.191L248.307,139.191z"/>
		</g>
	</g>
</g>
</svg>
